<svg version="1.1" xmlns="http://www.w3.org/2000/svg" xmlns:xlink="http://www.w3.org/1999/xlink" width="465.27601" height="187.13629" viewBox="0,0,465.27601,187.13629"><g transform="translate(-7.80732,-127.25)"><g data-paper-data="{&quot;isPaintingLayer&quot;:true}" fill-rule="nonzero" stroke-linecap="butt" stroke-linejoin="miter" stroke-miterlimit="10" stroke-dasharray="" stroke-dashoffset="0" style="mix-blend-mode: normal"><g><path d="M276.5,139c0,-5.79899 4.70101,-10.5 10.5,-10.5c5.79899,0 10.5,4.70101 10.5,10.5c0,5.79899 -4.70101,10.5 -10.5,10.5c-5.79899,0 -10.5,-4.70101 -10.5,-10.5z" fill="#ffffff" stroke="#000000" stroke-width="2.5"/><text transform="translate(283.07525,142.1398) scale(0.26165,0.26165)" font-size="40" xml:space="preserve" fill="#000000" fill-rule="nonzero" stroke="none" stroke-width="1" stroke-linecap="butt" stroke-linejoin="miter" stroke-miterlimit="10" stroke-dasharray="" stroke-dashoffset="0" font-family="Pixel" font-weight="normal" text-anchor="start" style="mix-blend-mode: normal"><tspan x="0" dy="0">A</tspan></text></g><text transform="translate(431.40859,311.1398) scale(0.20609,0.20609)" font-size="40" xml:space="preserve" fill="#000000" fill-rule="nonzero" stroke="none" stroke-width="1" stroke-linecap="butt" stroke-linejoin="miter" stroke-miterlimit="10" stroke-dasharray="" stroke-dashoffset="0" font-family="Pixel" font-weight="normal" text-anchor="start" style="mix-blend-mode: normal"><tspan x="0" dy="0">RB</tspan></text><path d="M450.83333,254.33333c0,-5.79899 4.70101,-10.5 10.5,-10.5c5.79899,0 10.5,4.70101 10.5,10.5c0,5.79899 -4.70101,10.5 -10.5,10.5c-5.79899,0 -10.5,-4.70101 -10.5,-10.5z" fill="#ffffff" stroke="#000000" stroke-width="2.5"/><text transform="translate(457.40858,257.47313) scale(0.26165,0.26165)" font-size="40" xml:space="preserve" fill="#000000" fill-rule="nonzero" stroke="none" stroke-width="1" stroke-linecap="butt" stroke-linejoin="miter" stroke-miterlimit="10" stroke-dasharray="" stroke-dashoffset="0" font-family="Pixel" font-weight="normal" text-anchor="start" style="mix-blend-mode: normal"><tspan x="0" dy="0">Y</tspan></text><text transform="translate(8.07525,312.1398) scale(0.2061,0.2061)" font-size="40" xml:space="preserve" fill="#000000" fill-rule="nonzero" stroke="none" stroke-width="1" stroke-linecap="butt" stroke-linejoin="miter" stroke-miterlimit="10" stroke-dasharray="" stroke-dashoffset="0" font-family="Pixel" font-weight="normal" text-anchor="start" style="mix-blend-mode: normal"><tspan x="0" dy="0">LB</tspan></text><path d="M81.64081,258.16667l0.09333,-4.80917l-5.67066,-0.20243l0.06451,-4.59646l5.70955,-0.04062l0.11829,-4.68466h6.30037l-0.06107,4.85091l5.7314,0.03188l-0.00815,4.65799l-5.77374,-0.07131l-0.04595,4.86387z" fill="#000000" stroke="none" stroke-width="0"/><path d="M77.07305,252.57509v-3.15018h4.25275v3.15018z" fill="#ffffff" stroke="none" stroke-width="0"/><path d="M222.30748,258.16667l0.09332,-4.80917l-5.67065,-0.20243l0.06451,-4.59646l5.70955,-0.04062l0.11829,-4.68465h6.30036l-0.06107,4.8509l5.7314,0.03188l-0.00815,4.65799l-5.77374,-0.07131l-0.04595,4.86387z" fill="#000000" stroke="none" stroke-width="0"/><path d="M223.5353,248.24176v-3.15018h4.25275v3.15018z" fill="#ffffff" stroke="none" stroke-width="0"/><path d="M352.80748,258.16667l0.09332,-4.80917l-5.67066,-0.20243l0.06451,-4.59646l5.70955,-0.04062l0.11829,-4.68465h6.30036l-0.06107,4.8509l5.7314,0.03188l-0.00815,4.65799l-5.77374,-0.07132l-0.04595,4.86387z" fill="#000000" stroke="none" stroke-width="0"/><path d="M359.86863,252.57509v-3.15018h4.25275v3.15018z" fill="#ffffff" stroke="none" stroke-width="0"/></g></g></svg>