<svg version="1.1" xmlns="http://www.w3.org/2000/svg" xmlns:xlink="http://www.w3.org/1999/xlink" width="80.49833" height="31.06924" viewBox="0,0,80.49833,31.06924"><defs><linearGradient x1="282.18961" y1="168.83333" x2="282.18961" y2="195.08333" gradientUnits="userSpaceOnUse" id="color-1"><stop offset="0" stop-color="#000000"/><stop offset="1" stop-color="#000000" stop-opacity="0"/></linearGradient></defs><g transform="translate(-232.125,-165.3934)"><g data-paper-data="{&quot;isPaintingLayer&quot;:true}" fill-rule="nonzero" stroke-linejoin="miter" stroke-miterlimit="10" stroke-dasharray="" stroke-dashoffset="0" style="mix-blend-mode: normal"><path d="M232.125,187v-10h10v10z" fill="#000000" stroke="none" stroke-width="0" stroke-linecap="butt"/><path d="" fill="#000000" stroke="none" stroke-width="0" stroke-linecap="butt"/><path d="M241.125,186.25v-8.25l11.75,-10l-0.25,27.75z" fill="#000000" stroke="none" stroke-width="0" stroke-linecap="butt"/><path d="M254.875,170c0,0 7,7.93029 7,11.75c0,4.15246 -7,12.25 -7,12.25" fill="none" stroke="#000000" stroke-width="0.5" stroke-linecap="round"/><path d="M259.875,170.25c0,0 7,7.93029 7,11.75c0,4.15247 -7,12.25 -7,12.25" fill="none" stroke="#000000" stroke-width="0.5" stroke-linecap="round"/><path d="M252.20833,195.08333v-26.25h59.96254v26.25z" fill="url(#color-1)" stroke="none" stroke-width="0" stroke-linecap="butt"/><text transform="translate(265.41667,180.74688) scale(0.30164,0.30164)" font-size="40" xml:space="preserve" fill="#ffffff" fill-rule="nonzero" stroke="none" stroke-width="1" stroke-linecap="butt" stroke-linejoin="miter" stroke-miterlimit="10" stroke-dasharray="" stroke-dashoffset="0" font-family="Pixel" font-weight="normal" text-anchor="start" style="mix-blend-mode: normal"><tspan x="0" dy="0">Aether</tspan></text><text transform="translate(268.08333,187.30085) scale(0.15393,0.15393)" font-size="40" xml:space="preserve" fill="#ffffff" fill-rule="nonzero" stroke="none" stroke-width="1" stroke-linecap="butt" stroke-linejoin="miter" stroke-miterlimit="10" stroke-dasharray="" stroke-dashoffset="0" font-family="Pixel" font-weight="normal" text-anchor="start" style="mix-blend-mode: normal"><tspan x="0" dy="0">By:  Re-Logic</tspan></text><text transform="translate(267.75,194.79167) scale(0.1533,0.1533)" font-size="40" xml:space="preserve" fill="#000000" fill-rule="nonzero" stroke="none" stroke-width="1" stroke-linecap="butt" stroke-linejoin="miter" stroke-miterlimit="10" stroke-dasharray="" stroke-dashoffset="0" font-family="Pixel" font-weight="normal" text-anchor="start" style="mix-blend-mode: normal"><tspan x="0" dy="0">2:00</tspan></text></g></g></svg>